ply
format ascii 1.0
comment Created by Open3D
element vertex 130
property double x
property double y
property double z
property uchar red
property uchar green
property uchar blue
end_header
0.0439688 -1.36459 0.999416 65 8 4
0.134825 -1.63716 0 86 53 39
0.134825 -1.45545 1.09027 38 6 14
0.134825 -1.36459 1.18113 24 7 7
0.134825 -1.36459 1.27198 66 11 8
0.134825 -1.27374 1.09027 90 56 41
0.134825 -1.27374 1.18113 116 72 50
0.134825 -1.27374 1.27198 144 96 74
0.134825 -1.27374 1.4537 160 99 68
0.134825 -1.27374 1.54455 182 110 76
0.134825 -1.27374 1.63541 41 25 23
0.134825 -1.18288 1.54455 30 21 17
0.225681 -1.63716 0.090856 63 62 51
0.225681 -1.5463 0.181712 45 38 28
0.225681 -1.5463 0.45428 37 10 8
0.225681 -1.45545 0.363424 48 35 34
0.225681 -1.45545 0.45428 32 7 5
0.225681 -1.45545 0.545136 36 8 8
0.225681 -1.45545 0.635992 46 11 8
0.225681 -1.45545 0.726848 52 10 8
0.225681 -1.45545 0.817704 52 10 6
0.225681 -1.45545 0.90856 41 8 7
0.225681 -1.45545 0.999416 40 9 8
0.225681 -1.45545 1.09027 34 7 5
0.225681 -1.45545 1.18113 83 14 9
0.225681 -1.45545 1.27198 196 132 108
0.225681 -1.36459 0.45428 46 29 35
0.225681 -1.36459 0.635992 26 6 7
0.225681 -1.36459 0.726848 35 6 8
0.225681 -1.36459 0.817704 34 7 6
0.225681 -1.36459 0.90856 38 8 1
0.225681 -1.36459 0.999416 32 6 7
0.225681 -1.36459 1.09027 23 5 6
0.225681 -1.36459 1.18113 66 13 9
0.225681 -1.36459 1.27198 47 9 8
0.225681 -1.36459 1.36284 191 112 73
0.225681 -1.27374 0.817704 215 131 96
0.225681 -1.27374 1.18113 128 85 65
0.225681 -1.27374 1.27198 50 8 11
0.225681 -1.27374 1.36284 75 44 28
0.225681 -1.27374 1.4537 74 55 39
0.225681 -1.27374 1.54455 74 41 45
0.225681 -1.27374 1.63541 36 34 20
0.225681 -1.18288 1.54455 33 23 20
0.316537 -1.5463 0.999416 55 45 20
0.316537 -1.5463 1.09027 60 8 11
0.316537 -1.45545 0.545136 48 9 7
0.316537 -1.45545 0.635992 53 9 8
0.316537 -1.45545 0.726848 46 8 9
0.316537 -1.45545 0.817704 44 11 3
0.316537 -1.45545 0.90856 46 10 10
0.316537 -1.45545 0.999416 39 7 5
0.316537 -1.45545 1.09027 63 11 8
0.316537 -1.45545 1.18113 107 46 25
0.316537 -1.45545 1.27198 70 13 7
0.316537 -1.45545 1.36284 71 16 13
0.316537 -1.36459 0.45428 24 6 6
0.316537 -1.36459 0.545136 28 7 4
0.316537 -1.36459 0.635992 32 7 1
0.316537 -1.36459 0.726848 35 7 7
0.316537 -1.36459 0.817704 38 7 8
0.316537 -1.36459 0.90856 37 7 7
0.316537 -1.36459 0.999416 25 7 6
0.316537 -1.36459 1.09027 49 8 6
0.316537 -1.36459 1.18113 61 11 11
0.316537 -1.36459 1.27198 197 115 88
0.316537 -1.36459 1.36284 220 91 95
0.316537 -1.36459 1.4537 128 103 80
0.316537 -1.27374 0.45428 99 37 24
0.316537 -1.27374 0.545136 178 101 92
0.316537 -1.27374 0.635992 203 127 105
0.316537 -1.27374 0.726848 218 119 100
0.316537 -1.27374 0.817704 106 67 55
0.316537 -1.27374 0.90856 136 82 55
0.316537 -1.27374 1.18113 51 8 6
0.316537 -1.27374 1.27198 79 44 29
0.316537 -1.27374 1.36284 154 90 62
0.316537 -1.27374 1.4537 138 83 39
0.316537 -1.27374 1.54455 71 77 64
0.316537 -1.18288 1.63541 55 41 58
0.407393 -1.45545 0.545136 52 9 7
0.407393 -1.45545 0.635992 47 10 8
0.407393 -1.45545 0.726848 43 7 7
0.407393 -1.45545 0.817704 45 9 6
0.407393 -1.45545 0.90856 48 9 7
0.407393 -1.45545 0.999416 20 6 0
0.407393 -1.45545 1.09027 107 20 12
0.407393 -1.45545 1.18113 65 12 9
0.407393 -1.45545 1.27198 103 15 11
0.407393 -1.36459 0.45428 30 7 6
0.407393 -1.36459 0.545136 33 7 8
0.407393 -1.36459 0.635992 40 9 8
0.407393 -1.36459 0.726848 42 10 6
0.407393 -1.36459 0.817704 43 8 8
0.407393 -1.36459 0.90856 29 7 5
0.407393 -1.36459 0.999416 45 7 8
0.407393 -1.36459 1.09027 66 12 5
0.407393 -1.36459 1.18113 218 134 110
0.407393 -1.36459 1.27198 235 139 102
0.407393 -1.36459 1.36284 95 14 9
0.407393 -1.36459 1.4537 255 195 143
0.407393 -1.27374 0.45428 114 36 18
0.407393 -1.27374 0.545136 177 93 73
0.407393 -1.27374 0.635992 197 115 90
0.407393 -1.27374 0.726848 133 82 63
0.407393 -1.27374 0.817704 134 78 63
0.407393 -1.27374 0.90856 90 62 49
0.407393 -1.27374 1.36284 216 134 98
0.407393 -1.27374 1.4537 65 44 30
0.407393 -1.18288 0 76 49 47
0.407393 -1.18288 0.545136 43 18 45
0.498249 -1.45545 0.726848 37 8 7
0.498249 -1.45545 0.817704 46 8 7
0.498249 -1.36459 0.45428 35 8 8
0.498249 -1.36459 0.545136 40 8 6
0.498249 -1.36459 0.635992 45 9 7
0.498249 -1.36459 0.726848 39 8 7
0.498249 -1.36459 0.817704 35 6 8
0.498249 -1.36459 1.4537 255 205 162
0.498249 -1.27374 0.272568 33 9 5
0.498249 -1.27374 0.363424 37 8 7
0.498249 -1.27374 0.545136 178 97 78
0.498249 -1.27374 0.635992 142 83 67
0.498249 -1.18288 0 145 66 58
0.498249 -1.18288 0.090856 156 71 55
0.498249 -1.18288 0.181712 173 99 69
0.498249 -1.18288 0.545136 97 17 11
0.589105 -1.45545 1.4537 116 76 67
0.679961 -1.45545 1.4537 255 192 147
0.770817 -1.45545 1.54455 107 120 118
