ply
format ascii 1.0
comment Created by Open3D
element vertex 52
property double x
property double y
property double z
end_header
0.0439688 -1.36459 0.999416
0.134825 -1.63716 0
0.134825 -1.45545 1.09027
0.134825 -1.36459 1.18113
0.134825 -1.36459 1.27198
0.134825 -1.27374 1.09027
0.134825 -1.27374 1.63541
0.134825 -1.18288 1.54455
0.134825 -1.18288 1.54455
0.225681 -1.63716 0.090856
0.225681 -1.63716 0.090856
0.225681 -1.5463 0.181712
0.225681 -1.5463 0.45428
0.225681 -1.45545 0.363424
0.225681 -1.45545 1.27198
0.225681 -1.36459 0.45428
0.225681 -1.36459 1.36284
0.225681 -1.27374 0.817704
0.225681 -1.27374 1.63541
0.225681 -1.18288 1.54455
0.225681 -1.18288 1.54455
0.316537 -1.5463 0.999416
0.316537 -1.5463 1.09027
0.316537 -1.45545 0.545136
0.316537 -1.45545 1.36284
0.316537 -1.36459 0.45428
0.316537 -1.36459 1.4537
0.316537 -1.27374 0.45428
0.316537 -1.27374 1.54455
0.316537 -1.18288 1.63541
0.316537 -1.18288 1.63541
0.407393 -1.45545 0.545136
0.407393 -1.45545 1.27198
0.407393 -1.36459 0.45428
0.407393 -1.36459 1.4537
0.407393 -1.27374 0.45428
0.407393 -1.27374 1.4537
0.407393 -1.18288 0
0.407393 -1.18288 0.545136
0.498249 -1.45545 0.726848
0.498249 -1.45545 0.817704
0.498249 -1.36459 0.45428
0.498249 -1.36459 1.4537
0.498249 -1.27374 0.272568
0.498249 -1.27374 0.635992
0.498249 -1.18288 0
0.498249 -1.18288 0.545136
0.589105 -1.45545 1.4537
0.589105 -1.45545 1.4537
0.679961 -1.45545 1.4537
0.679961 -1.45545 1.4537
0.770817 -1.45545 1.54455
